<svg xmlns="http://www.w3.org/2000/svg" width="100" height="100" viewBox="0 0 100 100">
  <!-- Seamless stylised ocean waves (horizontal); light grey on transparent -->
  <g fill="none" stroke="#ebebeb" stroke-width="1.3" stroke-linecap="round" stroke-linejoin="round">
    <path d="M0 12 C12 6, 22 18, 34 12 S56 6, 68 12 S90 18, 100 12"/>
    <path d="M0 28 C10 22, 24 34, 36 28 S58 22, 70 28 S90 34, 100 28" opacity="0.75"/>
    <path d="M0 44 C14 38, 22 50, 38 44 S58 38, 72 44 S88 50, 100 44"/>
    <path d="M0 60 C12 54, 26 66, 40 60 S60 54, 74 60 S90 66, 100 60" opacity="0.8"/>
    <path d="M0 76 C10 70, 24 82, 38 76 S58 70, 72 76 S88 82, 100 76"/>
    <path d="M0 92 C14 86, 22 98, 38 92 S58 86, 74 92 S90 98, 100 92" opacity="0.7"/>
  </g>
</svg>
